<svg xmlns="http://www.w3.org/2000/svg" viewBox="0 0 512 768" fill="none">
  <defs>
    <linearGradient id="topBody" x1="256" y1="96" x2="256" y2="664" gradientUnits="userSpaceOnUse">
      <stop stop-color="#DDD5CB"/>
      <stop offset="1" stop-color="#A89E92"/>
    </linearGradient>
  </defs>
  <path d="M194 108c17-18 45-28 62-28s45 10 62 28l51 66-45 35-23-27v312H211V182l-23 27-45-35 51-66Z" fill="url(#topBody)"/>
  <path d="M222 80h68l26 52H196l26-52Z" fill="#F2EBE1"/>
  <path d="M214 208h84v22h-84zM214 264h84v22h-84zM214 320h84v22h-84zM214 376h84v22h-84z" fill="#ECE5DB" opacity=".55"/>
  <path d="M165 230c10 28 17 58 20 89 3 30 0 59-9 87-5 16-12 31-22 45l-39-20c8-12 14-24 18-38 7-23 10-46 7-70-2-24-8-47-17-69l42-24Z" fill="#C6BBB0"/>
  <path d="M347 230c-10 28-17 58-20 89-3 30 0 59 9 87 5 16 12 31 22 45l39-20c-8-12-14-24-18-38-7-23-10-46-7-70 2-24 8-47 17-69l-42-24Z" fill="#C6BBB0"/>
</svg>
