<svg width="560" height="128" viewBox="0 0 560 128" fill="none" xmlns="http://www.w3.org/2000/svg" role="img" aria-labelledby="title desc">
  <title id="title">FreeStyle Logo</title>
  <desc id="desc">FreeStyle wordmark with monogram icon.</desc>
  <defs>
    <linearGradient id="logoGlow" x1="8" y1="8" x2="120" y2="120" gradientUnits="userSpaceOnUse">
      <stop offset="0" stop-color="#E8E9EE"/>
      <stop offset="1" stop-color="#A9AFBC"/>
    </linearGradient>
  </defs>

  <rect x="8" y="8" width="112" height="112" rx="29" fill="#0D0F16"/>
  <path d="M38 37H75V48.5H49.5V59.5H69.5V70.5H49.5V91H38V37Z" fill="white"/>
  <path d="M83.5 44C90.75 44 96.5 47 96.5 53.5C96.5 58.75 93.25 62.25 88.25 63.75C94 65.25 98.5 69.25 98.5 76.25C98.5 84.25 91.75 89 82.25 89C75.25 89 69.5 87 64.5 83.75L68.25 76C72.25 79 76.5 80.5 80.75 80.5C85.25 80.5 88 79 88 76C88 73 85 71.5 80 71.5H73.5V63H79C83.75 63 86.75 61.25 86.75 58C86.75 55.25 84.5 53.75 81 53.75C77.25 53.75 73.5 55.25 69.5 58L65.5 50.25C70.5 46 76.5 44 83.5 44Z" fill="url(#logoGlow)"/>

  <text x="152" y="74" fill="#111319" font-size="54" font-family="A2J, 'Times New Roman', serif" font-weight="700" letter-spacing="0.6">FreeStyle</text>
  <text x="154" y="98" fill="#6D7382" font-size="12" font-family="A2J, 'Helvetica Neue', Arial, sans-serif" font-weight="700" letter-spacing="3.2">VISUAL INTELLIGENCE ATELIER</text>
</svg>
